<?xml version="1.0" encoding="UTF-8"?>
<svg id="Capa_2" data-name="Capa 2" xmlns="http://www.w3.org/2000/svg" viewBox="0 0 213.02 235.57">
  <defs>
    <style>
      .cls-1 {
        fill: #7bc971;
      }
    </style>
  </defs>
  <g id="Capa_1-2" data-name="Capa 1">
    <g>
      <g>
        <rect x="83.32" y="0" width="35.4" height="11.74" transform="translate(202.04 11.74) rotate(-180)"/>
        <rect x="23.83" y="35.49" width="35.57" height="12.09" transform="translate(83.23 83.06) rotate(-180)"/>
        <rect x="154.13" y="153.02" width="35.4" height="11.74" transform="translate(343.66 317.79) rotate(-180)"/>
        <rect x="-11.83" y="93.87" width="35.4" height="11.74" transform="translate(105.62 93.87) rotate(90)"/>
        <rect x="83.23" y="93.87" width="35.4" height="11.74" transform="translate(200.68 -1.19) rotate(90)"/>
        <rect x="94.98" y="106.3" width="35.4" height="11.74" transform="translate(224.85 -.51) rotate(90)"/>
        <rect x="189.45" y="106.3" width="35.4" height="11.74" transform="translate(319.32 -94.98) rotate(90)"/>
        <rect x="13.02" y="165.02" width="35.4" height="11.74" transform="translate(201.62 140.17) rotate(90)"/>
        <rect x="48.34" y="129.7" width="11.74" height="11.74" transform="translate(189.79 81.36) rotate(90)"/>
        <rect x="36.43" y="141.28" width="11.74" height="12.09" transform="translate(189.62 105.02) rotate(90)"/>
        <rect x="83.32" y="105.7" width="11.74" height="11.74" transform="translate(200.77 22.38) rotate(90)"/>
        <rect x="118.25" y="93.79" width="11.74" height="13.1" transform="translate(224.46 -23.78) rotate(90)"/>
        <rect x="153.87" y="58.47" width="11.74" height="11.74" transform="translate(224.09 -95.4) rotate(90)"/>
        <rect x="129.21" y="81.21" width="13.95" height="12.56" transform="translate(223.68 -48.69) rotate(90)"/>
        <rect x="42.47" y="182.72" width="11.74" height="23.49" transform="translate(242.81 146.13) rotate(90)"/>
        <rect x="118.98" y="176.85" width="11.74" height="23.49" transform="translate(249.7 377.19) rotate(-180)"/>
        <rect x="154.21" y="188.6" width="11.74" height="23.49" transform="translate(320.17 400.68) rotate(-180)"/>
        <rect x="165.11" y="200.34" width="11.74" height="23.49" transform="translate(341.96 424.17) rotate(-180)"/>
        <rect x="142.47" y="176.85" width="11.74" height="23.49" transform="translate(296.68 377.19) rotate(-180)"/>
        <rect x="83.66" y="153.19" width="11.74" height="23.49" transform="translate(179.06 329.87) rotate(-180)"/>
        <rect x="118.55" y="129.87" width="12.17" height="23.49" transform="translate(249.28 283.23) rotate(-180)"/>
        <rect x="83.32" y="58.55" width="11.74" height="23.49" transform="translate(178.38 140.6) rotate(-180)"/>
        <rect x="106.81" y="47.49" width="12.17" height="23.49" transform="translate(225.79 118.47) rotate(-180)"/>
        <rect x="165.96" y="34.98" width="11.74" height="23.49" transform="translate(343.66 93.45) rotate(-180)"/>
        <rect x="148.34" y="99.83" width="11.74" height="23.49" transform="translate(265.79 -42.64) rotate(90)"/>
        <rect x="183.08" y="76.02" width="12.14" height="24.26" transform="translate(277.29 -101.01) rotate(90)"/>
        <rect x="148.14" y="16.95" width="12.14" height="24.26" transform="translate(183.29 -125.13) rotate(90)"/>
        <rect x="124.78" y="4.81" width="12.14" height="24.26" transform="translate(147.79 -113.91) rotate(90)"/>
        <rect x="53.45" y="76.6" width="11.74" height="23.49" transform="translate(147.66 29.02) rotate(90)"/>
        <rect x="165.96" y="117.45" width="11.74" height="11.74" transform="translate(295.15 -48.51) rotate(90)"/>
        <rect x="177.79" y="141.62" width="11.74" height="11.74" transform="translate(331.15 -36.17) rotate(90)"/>
        <rect x="189.53" y="129.87" width="11.74" height="11.74" transform="translate(331.15 -59.66) rotate(90)"/>
        <rect x="130.72" y="153.36" width="23.49" height="23.49" transform="translate(284.94 330.21) rotate(-180)"/>
        <rect x="176.85" y="212.09" width="23.49" height="23.49" transform="translate(377.19 447.66) rotate(-180)"/>
        <rect x="71.06" y="11.74" width="12.26" height="47.49" transform="translate(154.38 70.98) rotate(-180)"/>
        <rect x="147.05" y="52.49" width="12.26" height="47.69" transform="translate(229.52 -76.84) rotate(90)"/>
        <rect x="41.06" y="87.45" width="12.26" height="72.26" transform="translate(170.77 76.38) rotate(90)"/>
        <rect x="83.4" y="177.02" width="12.26" height="58.89" transform="translate(296 116.94) rotate(90)"/>
        <rect x="11.74" y="47.23" width="12.26" height="47.83" transform="translate(35.74 142.3) rotate(-180)"/>
        <rect x="59.4" y="47.57" width="11.66" height="11.66" transform="translate(130.47 106.81) rotate(-180)"/>
      </g>
      <g>
        <rect class="cls-1" x="83.32" y="11.74" width="35.74" height="35.74"/>
        <rect class="cls-1" x="23.83" y="47.29" width="35.74" height="35.18"/>
        <rect class="cls-1" x="118.72" y="22.72" width="23.36" height="24.85"/>
        <rect class="cls-1" x="142.09" y="35.15" width="23.81" height="23.32"/>
        <rect class="cls-1" x="118.95" y="47.57" width="23.81" height="22.64"/>
        <rect class="cls-1" x="106.86" y="69.62" width="23.81" height="24.85"/>
        <rect class="cls-1" x="118.61" y="106.21" width="24.02" height="23.66"/>
        <rect class="cls-1" x="142.31" y="82.38" width="34.71" height="23.83"/>
        <rect class="cls-1" x="136.31" y="123.49" width="35.91" height="23.83" transform="translate(289.67 -18.86) rotate(90)"/>
        <rect class="cls-1" x="130.85" y="129.19" width="46.85" height="24.17" transform="translate(308.55 282.55) rotate(180)"/>
        <rect class="cls-1" x="60.23" y="176.17" width="58.83" height="24.17" transform="translate(179.3 376.51) rotate(180)"/>
        <rect class="cls-1" x="30.59" y="158.86" width="35.51" height="24.17" transform="translate(-122.61 219.29) rotate(-90)"/>
        <rect class="cls-1" x="48.34" y="141.39" width="35.51" height="35.51" transform="translate(-93.05 225.24) rotate(-90)"/>
        <rect class="cls-1" x="95.31" y="153.02" width="35.3" height="24.17" transform="translate(225.91 330.21) rotate(180)"/>
        <rect class="cls-1" x="83.49" y="117.28" width="23.83" height="24.17" transform="translate(-33.96 224.77) rotate(-90)"/>
        <rect class="cls-1" x="59.57" y="129.87" width="59.01" height="24.17" transform="translate(178.16 283.91) rotate(180)"/>
        <rect class="cls-1" x="171.41" y="99.83" width="35.65" height="24.43" transform="translate(301.28 -77.19) rotate(90)"/>
        <rect class="cls-1" x="174.66" y="126.75" width="17.22" height="12.51" transform="translate(316.28 -50.27) rotate(90)"/>
        <rect class="cls-1" x="130.73" y="94.3" width="11.89" height="17.87"/>
        <rect class="cls-1" x="165.88" y="99.74" width="11.89" height="17.87"/>
        <rect class="cls-1" x="71.06" y="82.04" width="24.07" height="23.66"/>
        <rect class="cls-1" x="11.67" y="93.87" width="71.84" height="23.66"/>
        <rect class="cls-1" x="59.44" y="59.15" width="24.07" height="23.32"/>
        <rect class="cls-1" x="24" y="82.21" width="23.63" height="23.32"/>
        <rect class="cls-1" x="95.06" y="47.23" width="11.85" height="34.81"/>
        <rect class="cls-1" x="83.27" y="47.23" width="11.85" height="11.85"/>
        <rect class="cls-1" x="142.31" y="58.47" width="11.56" height="11.74"/>
      </g>
    </g>
  </g>
</svg>