<?xml version="1.0" encoding="UTF-8"?>
<svg id="Capa_2" data-name="Capa 2" xmlns="http://www.w3.org/2000/svg" viewBox="0 0 2610.55 91.42">
  <defs>
    <style>
      .cls-1 {
        fill: #fbfaf5;
      }
    </style>
  </defs>
  <g id="Capa_1-2" data-name="Capa 1">
    <g>
      <rect class="cls-1" y="41.47" width="5" height="8.79"/>
      <rect class="cls-1" x="12.3" y="39.87" width="5" height="10.39"/>
      <rect class="cls-1" x="25.31" y="33.47" width="5" height="24.78"/>
      <rect class="cls-1" x="36.2" y="35.47" width="5" height="20.58"/>
      <rect class="cls-1" x="47.8" y="35.47" width="5" height="20.58"/>
      <rect class="cls-1" x="60.46" y="39.87" width="5" height="14.79"/>
      <rect class="cls-1" x="60.46" y="20.48" width="5" height="8.79"/>
      <rect class="cls-1" x="60.46" y="62.45" width="5" height="8.79"/>
      <rect class="cls-1" x="71.35" y="15.69" width="5" height="18.58"/>
      <rect class="cls-1" x="71.35" y="39.87" width="5" height="11.19"/>
      <rect class="cls-1" x="71.35" y="59.05" width="5" height="17.98"/>
      <rect class="cls-1" x="84.71" y="15.69" width="5" height="61.35"/>
      <rect class="cls-1" x="97.01" y="15.69" width="5" height="23.18"/>
      <rect class="cls-1" x="97.01" y="51.06" width="5" height="26.58"/>
      <rect class="cls-1" x="97.01" y="82.23" width="5" height="5.79"/>
      <rect class="cls-1" x="97.01" y="5.5" width="5" height="4.6"/>
      <rect class="cls-1" x="108.26" y="2.7" width="5" height="7.39"/>
      <rect class="cls-1" x="108.26" y="14.69" width="5" height="10.19"/>
      <rect class="cls-1" x="108.26" y="38.87" width="5" height="13.79"/>
      <rect class="cls-1" x="108.26" y="66.84" width="5" height="10.79"/>
      <rect class="cls-1" x="108.26" y="82.23" width="5" height="4.8"/>
      <rect class="cls-1" x="120.56" y="80.63" width="5" height="6.39"/>
      <rect class="cls-1" x="132.87" y="77.64" width="5" height="8.39"/>
      <rect class="cls-1" x="120.56" y="62.45" width="5" height="12.19"/>
      <rect class="cls-1" x="120.56" y="38.87" width="5" height="12.19"/>
      <rect class="cls-1" x="120.56" y="15.69" width="5" height="10.19"/>
      <rect class="cls-1" x="120.56" y="1.5" width="5" height="8.59"/>
      <rect class="cls-1" x="132.87" y="5.5" width="5" height="9.19"/>
      <rect class="cls-1" x="144.11" y="7.79" width="5" height="14.09"/>
      <rect class="cls-1" x="144.11" y="36.47" width="5" height="21.78"/>
      <rect class="cls-1" x="132.87" y="41.47" width="5" height="7.19"/>
      <rect class="cls-1" x="156.77" y="66.84" width="5" height="21.18"/>
      <rect class="cls-1" x="156.77" y="35.47" width="5" height="19.18"/>
      <rect class="cls-1" x="156.77" y="1.5" width="5" height="20.38"/>
      <rect class="cls-1" x="168.72" y="59.05" width="5" height="18.58"/>
      <rect class="cls-1" x="168.72" y="41.47" width="5" height="7.19"/>
      <rect class="cls-1" x="168.72" y="7.79" width="5" height="24.28"/>
      <rect class="cls-1" x="180.32" y="54.66" width="5" height="22.38"/>
      <rect class="cls-1" x="180.32" y="43.66" width="5" height="5"/>
      <rect class="cls-1" x="180.32" y="16.69" width="5" height="22.18"/>
      <rect class="cls-1" x="191.92" y="7.79" width="5" height="78.24"/>
      <rect class="cls-1" x="205.98" y="7.79" width="5" height="12.99"/>
      <rect class="cls-1" x="204.22" y="70.44" width="5" height="15.59"/>
      <rect class="cls-1" x="204.22" y="34.27" width="5" height="24.78"/>
      <rect class="cls-1" x="216.52" y="1.5" width="5" height="15.19"/>
      <rect class="cls-1" x="216.52" y="35.47" width="5" height="19.18"/>
      <rect class="cls-1" x="216.52" y="75.64" width="5" height="15.79"/>
      <rect class="cls-1" x="228.47" y="73.24" width="5" height="12.79"/>
      <rect class="cls-1" x="228.47" y="38.87" width="5" height="13.79"/>
      <rect class="cls-1" x="228.47" y="4.5" width="5" height="15.29"/>
      <rect class="cls-1" x="241.48" y="12.14" width="5" height="12.74"/>
      <rect class="cls-1" x="241.48" y="41.47" width="5" height="11.19"/>
      <rect class="cls-1" x="241.48" y="68.54" width="5" height="13.29"/>
      <rect class="cls-1" x="253.78" y="71.24" width="5" height="6.99"/>
      <rect class="cls-1" x="253.78" y="14.29" width="5" height="6.5"/>
      <rect class="cls-1" x="253.78" y="43.66" width="5" height="6.59"/>
      <rect class="cls-1" x="263.62" y="43.66" width="5" height="6.59"/>
      <rect class="cls-1" x="275.57" y="43.66" width="5" height="5"/>
      <rect class="cls-1" x="288.58" y="43.66" width="5" height="5"/>
      <rect class="cls-1" x="299.12" y="43.66" width="5" height="5.79"/>
      <rect class="cls-1" x="265.03" y="16.29" width="5" height="6.59"/>
      <rect class="cls-1" x="276.98" y="16.29" width="5" height="5"/>
      <rect class="cls-1" x="289.99" y="16.29" width="5" height="5"/>
      <rect class="cls-1" x="300.53" y="16.29" width="5" height="5.79"/>
      <rect class="cls-1" x="263.62" y="71.44" width="5" height="6.59"/>
      <rect class="cls-1" x="275.57" y="71.44" width="5" height="5"/>
      <rect class="cls-1" x="288.58" y="71.44" width="5" height="5"/>
      <rect class="cls-1" x="299.12" y="71.44" width="5" height="5.79"/>
      <rect class="cls-1" x="313.18" y="43.06" width="5" height="5.6"/>
      <rect class="cls-1" x="640.6" y="41.17" width="5" height="8.79"/>
      <rect class="cls-1" x="628.3" y="41.17" width="5" height="10.39"/>
      <rect class="cls-1" x="615.29" y="33.17" width="5" height="24.78"/>
      <rect class="cls-1" x="604.4" y="35.37" width="5" height="20.58"/>
      <rect class="cls-1" x="592.8" y="35.37" width="5" height="20.58"/>
      <rect class="cls-1" x="580.15" y="36.77" width="5" height="14.79"/>
      <rect class="cls-1" x="580.15" y="62.15" width="5" height="8.79"/>
      <rect class="cls-1" x="580.15" y="20.18" width="5" height="8.79"/>
      <rect class="cls-1" x="569.25" y="57.15" width="5" height="18.58"/>
      <rect class="cls-1" x="569.25" y="40.37" width="5" height="11.19"/>
      <rect class="cls-1" x="569.25" y="14.39" width="5" height="17.98"/>
      <rect class="cls-1" x="555.89" y="14.39" width="5" height="61.35"/>
      <rect class="cls-1" x="543.59" y="52.56" width="5" height="23.18"/>
      <rect class="cls-1" x="543.59" y="13.79" width="5" height="26.58"/>
      <rect class="cls-1" x="543.59" y="3.4" width="5" height="5.79"/>
      <rect class="cls-1" x="543.59" y="81.33" width="5" height="4.6"/>
      <rect class="cls-1" x="532.34" y="81.33" width="5" height="7.39"/>
      <rect class="cls-1" x="532.34" y="66.54" width="5" height="10.19"/>
      <rect class="cls-1" x="532.34" y="38.77" width="5" height="13.79"/>
      <rect class="cls-1" x="532.34" y="13.79" width="5" height="10.79"/>
      <rect class="cls-1" x="532.34" y="4.4" width="5" height="4.8"/>
      <rect class="cls-1" x="520.04" y="4.4" width="5" height="6.39"/>
      <rect class="cls-1" x="507.74" y="5.4" width="5" height="8.39"/>
      <rect class="cls-1" x="520.04" y="16.79" width="5" height="12.19"/>
      <rect class="cls-1" x="520.04" y="40.37" width="5" height="12.19"/>
      <rect class="cls-1" x="520.04" y="65.55" width="5" height="10.19"/>
      <rect class="cls-1" x="520.04" y="81.33" width="5" height="8.59"/>
      <rect class="cls-1" x="507.74" y="76.74" width="5" height="9.19"/>
      <rect class="cls-1" x="496.49" y="69.54" width="5" height="14.09"/>
      <rect class="cls-1" x="496.49" y="33.17" width="5" height="21.78"/>
      <rect class="cls-1" x="507.74" y="42.76" width="5" height="7.19"/>
      <rect class="cls-1" x="483.83" y="3.4" width="5" height="21.18"/>
      <rect class="cls-1" x="483.83" y="36.77" width="5" height="19.18"/>
      <rect class="cls-1" x="483.83" y="69.54" width="5" height="20.38"/>
      <rect class="cls-1" x="471.88" y="13.79" width="5" height="18.58"/>
      <rect class="cls-1" x="471.88" y="42.76" width="5" height="7.19"/>
      <rect class="cls-1" x="471.88" y="59.35" width="5" height="24.28"/>
      <rect class="cls-1" x="460.29" y="14.39" width="5" height="22.38"/>
      <rect class="cls-1" x="460.29" y="42.76" width="5" height="5"/>
      <rect class="cls-1" x="460.29" y="52.56" width="5" height="22.18"/>
      <rect class="cls-1" x="448.69" y="5.4" width="5" height="78.24"/>
      <rect class="cls-1" x="434.63" y="70.64" width="5" height="12.99"/>
      <rect class="cls-1" x="436.38" y="5.4" width="5" height="15.59"/>
      <rect class="cls-1" x="436.38" y="32.37" width="5" height="24.78"/>
      <rect class="cls-1" x="424.08" y="74.74" width="5" height="15.19"/>
      <rect class="cls-1" x="424.08" y="36.77" width="5" height="19.18"/>
      <rect class="cls-1" x="424.08" width="5" height="15.79"/>
      <rect class="cls-1" x="412.13" y="5.4" width="5" height="12.79"/>
      <rect class="cls-1" x="412.13" y="38.77" width="5" height="13.79"/>
      <rect class="cls-1" x="412.13" y="71.64" width="5" height="15.29"/>
      <rect class="cls-1" x="399.12" y="66.54" width="5" height="12.74"/>
      <rect class="cls-1" x="399.12" y="38.77" width="5" height="11.19"/>
      <rect class="cls-1" x="399.12" y="9.59" width="5" height="13.29"/>
      <rect class="cls-1" x="386.82" y="13.19" width="5" height="6.99"/>
      <rect class="cls-1" x="386.82" y="70.64" width="5" height="6.5"/>
      <rect class="cls-1" x="386.82" y="41.17" width="5" height="6.59"/>
      <rect class="cls-1" x="376.98" y="41.17" width="5" height="6.59"/>
      <rect class="cls-1" x="365.03" y="42.76" width="5" height="5"/>
      <rect class="cls-1" x="352.02" y="42.76" width="5" height="5"/>
      <rect class="cls-1" x="341.48" y="41.97" width="5" height="5.79"/>
      <rect class="cls-1" x="375.57" y="68.54" width="5" height="6.59"/>
      <rect class="cls-1" x="363.62" y="70.14" width="5" height="5"/>
      <rect class="cls-1" x="350.62" y="70.14" width="5" height="5"/>
      <rect class="cls-1" x="340.07" y="69.34" width="5" height="5.79"/>
      <rect class="cls-1" x="376.98" y="13.39" width="5" height="6.59"/>
      <rect class="cls-1" x="365.03" y="14.99" width="5" height="5"/>
      <rect class="cls-1" x="352.02" y="14.99" width="5" height="5"/>
      <rect class="cls-1" x="341.48" y="14.19" width="5" height="5.79"/>
      <rect class="cls-1" x="327.42" y="42.76" width="5" height="5.6"/>
    </g>
    <g>
      <rect class="cls-1" x="653.39" y="41.47" width="5" height="8.79"/>
      <rect class="cls-1" x="665.69" y="39.87" width="5" height="10.39"/>
      <rect class="cls-1" x="678.7" y="33.47" width="5" height="24.78"/>
      <rect class="cls-1" x="689.59" y="35.47" width="5" height="20.58"/>
      <rect class="cls-1" x="701.19" y="35.47" width="5" height="20.58"/>
      <rect class="cls-1" x="713.85" y="39.87" width="5" height="14.79"/>
      <rect class="cls-1" x="713.85" y="20.48" width="5" height="8.79"/>
      <rect class="cls-1" x="713.85" y="62.45" width="5" height="8.79"/>
      <rect class="cls-1" x="724.74" y="15.69" width="5" height="18.58"/>
      <rect class="cls-1" x="724.74" y="39.87" width="5" height="11.19"/>
      <rect class="cls-1" x="724.74" y="59.05" width="5" height="17.98"/>
      <rect class="cls-1" x="738.1" y="15.69" width="5" height="61.35"/>
      <rect class="cls-1" x="750.4" y="15.69" width="5" height="23.18"/>
      <rect class="cls-1" x="750.4" y="51.06" width="5" height="26.58"/>
      <rect class="cls-1" x="750.4" y="82.23" width="5" height="5.79"/>
      <rect class="cls-1" x="750.4" y="5.5" width="5" height="4.6"/>
      <rect class="cls-1" x="761.65" y="2.7" width="5" height="7.39"/>
      <rect class="cls-1" x="761.65" y="14.69" width="5" height="10.19"/>
      <rect class="cls-1" x="761.65" y="38.87" width="5" height="13.79"/>
      <rect class="cls-1" x="761.65" y="66.84" width="5" height="10.79"/>
      <rect class="cls-1" x="761.65" y="82.23" width="5" height="4.8"/>
      <rect class="cls-1" x="773.95" y="80.63" width="5" height="6.39"/>
      <rect class="cls-1" x="786.25" y="77.64" width="5" height="8.39"/>
      <rect class="cls-1" x="773.95" y="62.45" width="5" height="12.19"/>
      <rect class="cls-1" x="773.95" y="38.87" width="5" height="12.19"/>
      <rect class="cls-1" x="773.95" y="15.69" width="5" height="10.19"/>
      <rect class="cls-1" x="773.95" y="1.5" width="5" height="8.59"/>
      <rect class="cls-1" x="786.25" y="5.5" width="5" height="9.19"/>
      <rect class="cls-1" x="797.5" y="7.79" width="5" height="14.09"/>
      <rect class="cls-1" x="797.5" y="36.47" width="5" height="21.78"/>
      <rect class="cls-1" x="786.25" y="41.47" width="5" height="7.19"/>
      <rect class="cls-1" x="810.16" y="66.84" width="5" height="21.18"/>
      <rect class="cls-1" x="810.16" y="35.47" width="5" height="19.18"/>
      <rect class="cls-1" x="810.16" y="1.5" width="5" height="20.38"/>
      <rect class="cls-1" x="822.11" y="59.05" width="5" height="18.58"/>
      <rect class="cls-1" x="822.11" y="41.47" width="5" height="7.19"/>
      <rect class="cls-1" x="822.11" y="7.79" width="5" height="24.28"/>
      <rect class="cls-1" x="833.71" y="54.66" width="5" height="22.38"/>
      <rect class="cls-1" x="833.71" y="43.66" width="5" height="5"/>
      <rect class="cls-1" x="833.71" y="16.69" width="5" height="22.18"/>
      <rect class="cls-1" x="845.3" y="7.79" width="5" height="78.24"/>
      <rect class="cls-1" x="859.37" y="7.79" width="5" height="12.99"/>
      <rect class="cls-1" x="857.61" y="70.44" width="5" height="15.59"/>
      <rect class="cls-1" x="857.61" y="34.27" width="5" height="24.78"/>
      <rect class="cls-1" x="869.91" y="1.5" width="5" height="15.19"/>
      <rect class="cls-1" x="869.91" y="35.47" width="5" height="19.18"/>
      <rect class="cls-1" x="869.91" y="75.64" width="5" height="15.79"/>
      <rect class="cls-1" x="881.86" y="73.24" width="5" height="12.79"/>
      <rect class="cls-1" x="881.86" y="38.87" width="5" height="13.79"/>
      <rect class="cls-1" x="881.86" y="4.5" width="5" height="15.29"/>
      <rect class="cls-1" x="894.87" y="12.14" width="5" height="12.74"/>
      <rect class="cls-1" x="894.87" y="41.47" width="5" height="11.19"/>
      <rect class="cls-1" x="894.87" y="68.54" width="5" height="13.29"/>
      <rect class="cls-1" x="907.17" y="71.24" width="5" height="6.99"/>
      <rect class="cls-1" x="907.17" y="14.29" width="5" height="6.5"/>
      <rect class="cls-1" x="907.17" y="43.66" width="5" height="6.59"/>
      <rect class="cls-1" x="917.01" y="43.66" width="5" height="6.59"/>
      <rect class="cls-1" x="928.96" y="43.66" width="5" height="5"/>
      <rect class="cls-1" x="941.97" y="43.66" width="5" height="5"/>
      <rect class="cls-1" x="952.51" y="43.66" width="5" height="5.79"/>
      <rect class="cls-1" x="918.42" y="16.29" width="5" height="6.59"/>
      <rect class="cls-1" x="930.37" y="16.29" width="5" height="5"/>
      <rect class="cls-1" x="943.37" y="16.29" width="5" height="5"/>
      <rect class="cls-1" x="953.92" y="16.29" width="5" height="5.79"/>
      <rect class="cls-1" x="917.01" y="71.44" width="5" height="6.59"/>
      <rect class="cls-1" x="928.96" y="71.44" width="5" height="5"/>
      <rect class="cls-1" x="941.97" y="71.44" width="5" height="5"/>
      <rect class="cls-1" x="952.51" y="71.44" width="5" height="5.79"/>
      <rect class="cls-1" x="966.57" y="43.06" width="5" height="5.6"/>
      <rect class="cls-1" x="1293.99" y="41.17" width="5" height="8.79"/>
      <rect class="cls-1" x="1281.69" y="41.17" width="5" height="10.39"/>
      <rect class="cls-1" x="1268.68" y="33.17" width="5" height="24.78"/>
      <rect class="cls-1" x="1257.79" y="35.37" width="5" height="20.58"/>
      <rect class="cls-1" x="1246.19" y="35.37" width="5" height="20.58"/>
      <rect class="cls-1" x="1233.53" y="36.77" width="5" height="14.79"/>
      <rect class="cls-1" x="1233.53" y="62.15" width="5" height="8.79"/>
      <rect class="cls-1" x="1233.53" y="20.18" width="5" height="8.79"/>
      <rect class="cls-1" x="1222.64" y="57.15" width="5" height="18.58"/>
      <rect class="cls-1" x="1222.64" y="40.37" width="5" height="11.19"/>
      <rect class="cls-1" x="1222.64" y="14.39" width="5" height="17.98"/>
      <rect class="cls-1" x="1209.28" y="14.39" width="5" height="61.35"/>
      <rect class="cls-1" x="1196.98" y="52.56" width="5" height="23.18"/>
      <rect class="cls-1" x="1196.98" y="13.79" width="5" height="26.58"/>
      <rect class="cls-1" x="1196.98" y="3.4" width="5" height="5.79"/>
      <rect class="cls-1" x="1196.98" y="81.33" width="5" height="4.6"/>
      <rect class="cls-1" x="1185.73" y="81.33" width="5" height="7.39"/>
      <rect class="cls-1" x="1185.73" y="66.54" width="5" height="10.19"/>
      <rect class="cls-1" x="1185.73" y="38.77" width="5" height="13.79"/>
      <rect class="cls-1" x="1185.73" y="13.79" width="5" height="10.79"/>
      <rect class="cls-1" x="1185.73" y="4.4" width="5" height="4.8"/>
      <rect class="cls-1" x="1173.43" y="4.4" width="5" height="6.39"/>
      <rect class="cls-1" x="1161.13" y="5.4" width="5" height="8.39"/>
      <rect class="cls-1" x="1173.43" y="16.79" width="5" height="12.19"/>
      <rect class="cls-1" x="1173.43" y="40.37" width="5" height="12.19"/>
      <rect class="cls-1" x="1173.43" y="65.55" width="5" height="10.19"/>
      <rect class="cls-1" x="1173.43" y="81.33" width="5" height="8.59"/>
      <rect class="cls-1" x="1161.13" y="76.74" width="5" height="9.19"/>
      <rect class="cls-1" x="1149.88" y="69.54" width="5" height="14.09"/>
      <rect class="cls-1" x="1149.88" y="33.17" width="5" height="21.78"/>
      <rect class="cls-1" x="1161.13" y="42.76" width="5" height="7.19"/>
      <rect class="cls-1" x="1137.22" y="3.4" width="5" height="21.18"/>
      <rect class="cls-1" x="1137.22" y="36.77" width="5" height="19.18"/>
      <rect class="cls-1" x="1137.22" y="69.54" width="5" height="20.38"/>
      <rect class="cls-1" x="1125.27" y="13.79" width="5" height="18.58"/>
      <rect class="cls-1" x="1125.27" y="42.76" width="5" height="7.19"/>
      <rect class="cls-1" x="1125.27" y="59.35" width="5" height="24.28"/>
      <rect class="cls-1" x="1113.67" y="14.39" width="5" height="22.38"/>
      <rect class="cls-1" x="1113.67" y="42.76" width="5" height="5"/>
      <rect class="cls-1" x="1113.67" y="52.56" width="5" height="22.18"/>
      <rect class="cls-1" x="1102.07" y="5.4" width="5" height="78.24"/>
      <rect class="cls-1" x="1088.01" y="70.64" width="5" height="12.99"/>
      <rect class="cls-1" x="1089.77" y="5.4" width="5" height="15.59"/>
      <rect class="cls-1" x="1089.77" y="32.37" width="5" height="24.78"/>
      <rect class="cls-1" x="1077.47" y="74.74" width="5" height="15.19"/>
      <rect class="cls-1" x="1077.47" y="36.77" width="5" height="19.18"/>
      <rect class="cls-1" x="1077.47" width="5" height="15.79"/>
      <rect class="cls-1" x="1065.52" y="5.4" width="5" height="12.79"/>
      <rect class="cls-1" x="1065.52" y="38.77" width="5" height="13.79"/>
      <rect class="cls-1" x="1065.52" y="71.64" width="5" height="15.29"/>
      <rect class="cls-1" x="1052.51" y="66.54" width="5" height="12.74"/>
      <rect class="cls-1" x="1052.51" y="38.77" width="5" height="11.19"/>
      <rect class="cls-1" x="1052.51" y="9.59" width="5" height="13.29"/>
      <rect class="cls-1" x="1040.21" y="13.19" width="5" height="6.99"/>
      <rect class="cls-1" x="1040.21" y="70.64" width="5" height="6.5"/>
      <rect class="cls-1" x="1040.21" y="41.17" width="5" height="6.59"/>
      <rect class="cls-1" x="1030.37" y="41.17" width="5" height="6.59"/>
      <rect class="cls-1" x="1018.42" y="42.76" width="5" height="5"/>
      <rect class="cls-1" x="1005.41" y="42.76" width="5" height="5"/>
      <rect class="cls-1" x="994.87" y="41.97" width="5" height="5.79"/>
      <rect class="cls-1" x="1028.96" y="68.54" width="5" height="6.59"/>
      <rect class="cls-1" x="1017.01" y="70.14" width="5" height="5"/>
      <rect class="cls-1" x="1004.01" y="70.14" width="5" height="5"/>
      <rect class="cls-1" x="993.46" y="69.34" width="5" height="5.79"/>
      <rect class="cls-1" x="1030.37" y="13.39" width="5" height="6.59"/>
      <rect class="cls-1" x="1018.42" y="14.99" width="5" height="5"/>
      <rect class="cls-1" x="1005.41" y="14.99" width="5" height="5"/>
      <rect class="cls-1" x="994.87" y="14.19" width="5" height="5.79"/>
      <rect class="cls-1" x="980.81" y="42.76" width="5" height="5.6"/>
    </g>
    <g>
      <rect class="cls-1" x="1305.56" y="41.47" width="5" height="8.79"/>
      <rect class="cls-1" x="1317.87" y="39.87" width="5" height="10.39"/>
      <rect class="cls-1" x="1330.87" y="33.47" width="5" height="24.78"/>
      <rect class="cls-1" x="1341.77" y="35.47" width="5" height="20.58"/>
      <rect class="cls-1" x="1353.37" y="35.47" width="5" height="20.58"/>
      <rect class="cls-1" x="1366.02" y="39.87" width="5" height="14.79"/>
      <rect class="cls-1" x="1366.02" y="20.48" width="5" height="8.79"/>
      <rect class="cls-1" x="1366.02" y="62.45" width="5" height="8.79"/>
      <rect class="cls-1" x="1376.92" y="15.69" width="5" height="18.58"/>
      <rect class="cls-1" x="1376.92" y="39.87" width="5" height="11.19"/>
      <rect class="cls-1" x="1376.92" y="59.05" width="5" height="17.98"/>
      <rect class="cls-1" x="1390.27" y="15.69" width="5" height="61.35"/>
      <rect class="cls-1" x="1402.58" y="15.69" width="5" height="23.18"/>
      <rect class="cls-1" x="1402.58" y="51.06" width="5" height="26.58"/>
      <rect class="cls-1" x="1402.58" y="82.23" width="5" height="5.79"/>
      <rect class="cls-1" x="1402.58" y="5.5" width="5" height="4.6"/>
      <rect class="cls-1" x="1413.82" y="2.7" width="5" height="7.39"/>
      <rect class="cls-1" x="1413.82" y="14.69" width="5" height="10.19"/>
      <rect class="cls-1" x="1413.82" y="38.87" width="5" height="13.79"/>
      <rect class="cls-1" x="1413.82" y="66.84" width="5" height="10.79"/>
      <rect class="cls-1" x="1413.82" y="82.23" width="5" height="4.8"/>
      <rect class="cls-1" x="1426.13" y="80.63" width="5" height="6.39"/>
      <rect class="cls-1" x="1438.43" y="77.64" width="5" height="8.39"/>
      <rect class="cls-1" x="1426.13" y="62.45" width="5" height="12.19"/>
      <rect class="cls-1" x="1426.13" y="38.87" width="5" height="12.19"/>
      <rect class="cls-1" x="1426.13" y="15.69" width="5" height="10.19"/>
      <rect class="cls-1" x="1426.13" y="1.5" width="5" height="8.59"/>
      <rect class="cls-1" x="1438.43" y="5.5" width="5" height="9.19"/>
      <rect class="cls-1" x="1449.68" y="7.79" width="5" height="14.09"/>
      <rect class="cls-1" x="1449.68" y="36.47" width="5" height="21.78"/>
      <rect class="cls-1" x="1438.43" y="41.47" width="5" height="7.19"/>
      <rect class="cls-1" x="1462.33" y="66.84" width="5" height="21.18"/>
      <rect class="cls-1" x="1462.33" y="35.47" width="5" height="19.18"/>
      <rect class="cls-1" x="1462.33" y="1.5" width="5" height="20.38"/>
      <rect class="cls-1" x="1474.28" y="59.05" width="5" height="18.58"/>
      <rect class="cls-1" x="1474.28" y="41.47" width="5" height="7.19"/>
      <rect class="cls-1" x="1474.28" y="7.79" width="5" height="24.28"/>
      <rect class="cls-1" x="1485.88" y="54.66" width="5" height="22.38"/>
      <rect class="cls-1" x="1485.88" y="43.66" width="5" height="5"/>
      <rect class="cls-1" x="1485.88" y="16.69" width="5" height="22.18"/>
      <rect class="cls-1" x="1497.48" y="7.79" width="5" height="78.24"/>
      <rect class="cls-1" x="1511.54" y="7.79" width="5" height="12.99"/>
      <rect class="cls-1" x="1509.78" y="70.44" width="5" height="15.59"/>
      <rect class="cls-1" x="1509.78" y="34.27" width="5" height="24.78"/>
      <rect class="cls-1" x="1522.09" y="1.5" width="5" height="15.19"/>
      <rect class="cls-1" x="1522.09" y="35.47" width="5" height="19.18"/>
      <rect class="cls-1" x="1522.09" y="75.64" width="5" height="15.79"/>
      <rect class="cls-1" x="1534.04" y="73.24" width="5" height="12.79"/>
      <rect class="cls-1" x="1534.04" y="38.87" width="5" height="13.79"/>
      <rect class="cls-1" x="1534.04" y="4.5" width="5" height="15.29"/>
      <rect class="cls-1" x="1547.04" y="12.14" width="5" height="12.74"/>
      <rect class="cls-1" x="1547.04" y="41.47" width="5" height="11.19"/>
      <rect class="cls-1" x="1547.04" y="68.54" width="5" height="13.29"/>
      <rect class="cls-1" x="1559.34" y="71.24" width="5" height="6.99"/>
      <rect class="cls-1" x="1559.34" y="14.29" width="5" height="6.5"/>
      <rect class="cls-1" x="1559.34" y="43.66" width="5" height="6.59"/>
      <rect class="cls-1" x="1569.19" y="43.66" width="5" height="6.59"/>
      <rect class="cls-1" x="1581.14" y="43.66" width="5" height="5"/>
      <rect class="cls-1" x="1594.14" y="43.66" width="5" height="5"/>
      <rect class="cls-1" x="1604.69" y="43.66" width="5" height="5.79"/>
      <rect class="cls-1" x="1570.59" y="16.29" width="5" height="6.59"/>
      <rect class="cls-1" x="1582.54" y="16.29" width="5" height="5"/>
      <rect class="cls-1" x="1595.55" y="16.29" width="5" height="5"/>
      <rect class="cls-1" x="1606.09" y="16.29" width="5" height="5.79"/>
      <rect class="cls-1" x="1569.19" y="71.44" width="5" height="6.59"/>
      <rect class="cls-1" x="1581.14" y="71.44" width="5" height="5"/>
      <rect class="cls-1" x="1594.14" y="71.44" width="5" height="5"/>
      <rect class="cls-1" x="1604.69" y="71.44" width="5" height="5.79"/>
      <rect class="cls-1" x="1618.75" y="43.06" width="5" height="5.6"/>
      <rect class="cls-1" x="1946.17" y="41.17" width="5" height="8.79"/>
      <rect class="cls-1" x="1933.86" y="41.17" width="5" height="10.39"/>
      <rect class="cls-1" x="1920.86" y="33.17" width="5" height="24.78"/>
      <rect class="cls-1" x="1909.96" y="35.37" width="5" height="20.58"/>
      <rect class="cls-1" x="1898.36" y="35.37" width="5" height="20.58"/>
      <rect class="cls-1" x="1885.71" y="36.77" width="5" height="14.79"/>
      <rect class="cls-1" x="1885.71" y="62.15" width="5" height="8.79"/>
      <rect class="cls-1" x="1885.71" y="20.18" width="5" height="8.79"/>
      <rect class="cls-1" x="1874.81" y="57.15" width="5" height="18.58"/>
      <rect class="cls-1" x="1874.81" y="40.37" width="5" height="11.19"/>
      <rect class="cls-1" x="1874.81" y="14.39" width="5" height="17.98"/>
      <rect class="cls-1" x="1861.46" y="14.39" width="5" height="61.35"/>
      <rect class="cls-1" x="1849.15" y="52.56" width="5" height="23.18"/>
      <rect class="cls-1" x="1849.15" y="13.79" width="5" height="26.58"/>
      <rect class="cls-1" x="1849.15" y="3.4" width="5" height="5.79"/>
      <rect class="cls-1" x="1849.15" y="81.33" width="5" height="4.6"/>
      <rect class="cls-1" x="1837.91" y="81.33" width="5" height="7.39"/>
      <rect class="cls-1" x="1837.91" y="66.54" width="5" height="10.19"/>
      <rect class="cls-1" x="1837.91" y="38.77" width="5" height="13.79"/>
      <rect class="cls-1" x="1837.91" y="13.79" width="5" height="10.79"/>
      <rect class="cls-1" x="1837.91" y="4.4" width="5" height="4.8"/>
      <rect class="cls-1" x="1825.6" y="4.4" width="5" height="6.39"/>
      <rect class="cls-1" x="1813.3" y="5.4" width="5" height="8.39"/>
      <rect class="cls-1" x="1825.6" y="16.79" width="5" height="12.19"/>
      <rect class="cls-1" x="1825.6" y="40.37" width="5" height="12.19"/>
      <rect class="cls-1" x="1825.6" y="65.55" width="5" height="10.19"/>
      <rect class="cls-1" x="1825.6" y="81.33" width="5" height="8.59"/>
      <rect class="cls-1" x="1813.3" y="76.74" width="5" height="9.19"/>
      <rect class="cls-1" x="1802.05" y="69.54" width="5" height="14.09"/>
      <rect class="cls-1" x="1802.05" y="33.17" width="5" height="21.78"/>
      <rect class="cls-1" x="1813.3" y="42.76" width="5" height="7.19"/>
      <rect class="cls-1" x="1789.4" y="3.4" width="5" height="21.18"/>
      <rect class="cls-1" x="1789.4" y="36.77" width="5" height="19.18"/>
      <rect class="cls-1" x="1789.4" y="69.54" width="5" height="20.38"/>
      <rect class="cls-1" x="1777.45" y="13.79" width="5" height="18.58"/>
      <rect class="cls-1" x="1777.45" y="42.76" width="5" height="7.19"/>
      <rect class="cls-1" x="1777.45" y="59.35" width="5" height="24.28"/>
      <rect class="cls-1" x="1765.85" y="14.39" width="5" height="22.38"/>
      <rect class="cls-1" x="1765.85" y="42.76" width="5" height="5"/>
      <rect class="cls-1" x="1765.85" y="52.56" width="5" height="22.18"/>
      <rect class="cls-1" x="1754.25" y="5.4" width="5" height="78.24"/>
      <rect class="cls-1" x="1740.19" y="70.64" width="5" height="12.99"/>
      <rect class="cls-1" x="1741.95" y="5.4" width="5" height="15.59"/>
      <rect class="cls-1" x="1741.95" y="32.37" width="5" height="24.78"/>
      <rect class="cls-1" x="1729.65" y="74.74" width="5" height="15.19"/>
      <rect class="cls-1" x="1729.65" y="36.77" width="5" height="19.18"/>
      <rect class="cls-1" x="1729.65" width="5" height="15.79"/>
      <rect class="cls-1" x="1717.69" y="5.4" width="5" height="12.79"/>
      <rect class="cls-1" x="1717.69" y="38.77" width="5" height="13.79"/>
      <rect class="cls-1" x="1717.69" y="71.64" width="5" height="15.29"/>
      <rect class="cls-1" x="1704.69" y="66.54" width="5" height="12.74"/>
      <rect class="cls-1" x="1704.69" y="38.77" width="5" height="11.19"/>
      <rect class="cls-1" x="1704.69" y="9.59" width="5" height="13.29"/>
      <rect class="cls-1" x="1692.39" y="13.19" width="5" height="6.99"/>
      <rect class="cls-1" x="1692.39" y="70.64" width="5" height="6.5"/>
      <rect class="cls-1" x="1692.39" y="41.17" width="5" height="6.59"/>
      <rect class="cls-1" x="1682.54" y="41.17" width="5" height="6.59"/>
      <rect class="cls-1" x="1670.59" y="42.76" width="5" height="5"/>
      <rect class="cls-1" x="1657.59" y="42.76" width="5" height="5"/>
      <rect class="cls-1" x="1647.04" y="41.97" width="5" height="5.79"/>
      <rect class="cls-1" x="1681.14" y="68.54" width="5" height="6.59"/>
      <rect class="cls-1" x="1669.19" y="70.14" width="5" height="5"/>
      <rect class="cls-1" x="1656.18" y="70.14" width="5" height="5"/>
      <rect class="cls-1" x="1645.64" y="69.34" width="5" height="5.79"/>
      <rect class="cls-1" x="1682.54" y="13.39" width="5" height="6.59"/>
      <rect class="cls-1" x="1670.59" y="14.99" width="5" height="5"/>
      <rect class="cls-1" x="1657.59" y="14.99" width="5" height="5"/>
      <rect class="cls-1" x="1647.04" y="14.19" width="5" height="5.79"/>
      <rect class="cls-1" x="1632.98" y="42.76" width="5" height="5.6"/>
    </g>
    <g>
      <rect class="cls-1" x="1964.95" y="41.47" width="5" height="8.79"/>
      <rect class="cls-1" x="1977.25" y="39.87" width="5" height="10.39"/>
      <rect class="cls-1" x="1990.26" y="33.47" width="5" height="24.78"/>
      <rect class="cls-1" x="2001.16" y="35.47" width="5" height="20.58"/>
      <rect class="cls-1" x="2012.76" y="35.47" width="5" height="20.58"/>
      <rect class="cls-1" x="2025.41" y="39.87" width="5" height="14.79"/>
      <rect class="cls-1" x="2025.41" y="20.48" width="5" height="8.79"/>
      <rect class="cls-1" x="2025.41" y="62.45" width="5" height="8.79"/>
      <rect class="cls-1" x="2036.31" y="15.69" width="5" height="18.58"/>
      <rect class="cls-1" x="2036.31" y="39.87" width="5" height="11.19"/>
      <rect class="cls-1" x="2036.31" y="59.05" width="5" height="17.98"/>
      <rect class="cls-1" x="2049.66" y="15.69" width="5" height="61.35"/>
      <rect class="cls-1" x="2061.97" y="15.69" width="5" height="23.18"/>
      <rect class="cls-1" x="2061.97" y="51.06" width="5" height="26.58"/>
      <rect class="cls-1" x="2061.97" y="82.23" width="5" height="5.79"/>
      <rect class="cls-1" x="2061.97" y="5.5" width="5" height="4.6"/>
      <rect class="cls-1" x="2073.21" y="2.7" width="5" height="7.39"/>
      <rect class="cls-1" x="2073.21" y="14.69" width="5" height="10.19"/>
      <rect class="cls-1" x="2073.21" y="38.87" width="5" height="13.79"/>
      <rect class="cls-1" x="2073.21" y="66.84" width="5" height="10.79"/>
      <rect class="cls-1" x="2073.21" y="82.23" width="5" height="4.8"/>
      <rect class="cls-1" x="2085.52" y="80.63" width="5" height="6.39"/>
      <rect class="cls-1" x="2097.82" y="77.64" width="5" height="8.39"/>
      <rect class="cls-1" x="2085.52" y="62.45" width="5" height="12.19"/>
      <rect class="cls-1" x="2085.52" y="38.87" width="5" height="12.19"/>
      <rect class="cls-1" x="2085.52" y="15.69" width="5" height="10.19"/>
      <rect class="cls-1" x="2085.52" y="1.5" width="5" height="8.59"/>
      <rect class="cls-1" x="2097.82" y="5.5" width="5" height="9.19"/>
      <rect class="cls-1" x="2109.07" y="7.79" width="5" height="14.09"/>
      <rect class="cls-1" x="2109.07" y="36.47" width="5" height="21.78"/>
      <rect class="cls-1" x="2097.82" y="41.47" width="5" height="7.19"/>
      <rect class="cls-1" x="2121.72" y="66.84" width="5" height="21.18"/>
      <rect class="cls-1" x="2121.72" y="35.47" width="5" height="19.18"/>
      <rect class="cls-1" x="2121.72" y="1.5" width="5" height="20.38"/>
      <rect class="cls-1" x="2133.67" y="59.05" width="5" height="18.58"/>
      <rect class="cls-1" x="2133.67" y="41.47" width="5" height="7.19"/>
      <rect class="cls-1" x="2133.67" y="7.79" width="5" height="24.28"/>
      <rect class="cls-1" x="2145.27" y="54.66" width="5" height="22.38"/>
      <rect class="cls-1" x="2145.27" y="43.66" width="5" height="5"/>
      <rect class="cls-1" x="2145.27" y="16.69" width="5" height="22.18"/>
      <rect class="cls-1" x="2156.87" y="7.79" width="5" height="78.24"/>
      <rect class="cls-1" x="2170.93" y="7.79" width="5" height="12.99"/>
      <rect class="cls-1" x="2169.17" y="70.44" width="5" height="15.59"/>
      <rect class="cls-1" x="2169.17" y="34.27" width="5" height="24.78"/>
      <rect class="cls-1" x="2181.47" y="1.5" width="5" height="15.19"/>
      <rect class="cls-1" x="2181.47" y="35.47" width="5" height="19.18"/>
      <rect class="cls-1" x="2181.47" y="75.64" width="5" height="15.79"/>
      <rect class="cls-1" x="2193.42" y="73.24" width="5" height="12.79"/>
      <rect class="cls-1" x="2193.42" y="38.87" width="5" height="13.79"/>
      <rect class="cls-1" x="2193.42" y="4.5" width="5" height="15.29"/>
      <rect class="cls-1" x="2206.43" y="12.14" width="5" height="12.74"/>
      <rect class="cls-1" x="2206.43" y="41.47" width="5" height="11.19"/>
      <rect class="cls-1" x="2206.43" y="68.54" width="5" height="13.29"/>
      <rect class="cls-1" x="2218.73" y="71.24" width="5" height="6.99"/>
      <rect class="cls-1" x="2218.73" y="14.29" width="5" height="6.5"/>
      <rect class="cls-1" x="2218.73" y="43.66" width="5" height="6.59"/>
      <rect class="cls-1" x="2228.57" y="43.66" width="5" height="6.59"/>
      <rect class="cls-1" x="2240.53" y="43.66" width="5" height="5"/>
      <rect class="cls-1" x="2253.53" y="43.66" width="5" height="5"/>
      <rect class="cls-1" x="2264.08" y="43.66" width="5" height="5.79"/>
      <rect class="cls-1" x="2229.98" y="16.29" width="5" height="6.59"/>
      <rect class="cls-1" x="2241.93" y="16.29" width="5" height="5"/>
      <rect class="cls-1" x="2254.94" y="16.29" width="5" height="5"/>
      <rect class="cls-1" x="2265.48" y="16.29" width="5" height="5.79"/>
      <rect class="cls-1" x="2228.57" y="71.44" width="5" height="6.59"/>
      <rect class="cls-1" x="2240.53" y="71.44" width="5" height="5"/>
      <rect class="cls-1" x="2253.53" y="71.44" width="5" height="5"/>
      <rect class="cls-1" x="2264.08" y="71.44" width="5" height="5.79"/>
      <rect class="cls-1" x="2278.14" y="43.06" width="5" height="5.6"/>
      <rect class="cls-1" x="2605.55" y="41.17" width="5" height="8.79"/>
      <rect class="cls-1" x="2593.25" y="41.17" width="5" height="10.39"/>
      <rect class="cls-1" x="2580.25" y="33.17" width="5" height="24.78"/>
      <rect class="cls-1" x="2569.35" y="35.37" width="5" height="20.58"/>
      <rect class="cls-1" x="2557.75" y="35.37" width="5" height="20.58"/>
      <rect class="cls-1" x="2545.1" y="36.77" width="5" height="14.79"/>
      <rect class="cls-1" x="2545.1" y="62.15" width="5" height="8.79"/>
      <rect class="cls-1" x="2545.1" y="20.18" width="5" height="8.79"/>
      <rect class="cls-1" x="2534.2" y="57.15" width="5" height="18.58"/>
      <rect class="cls-1" x="2534.2" y="40.37" width="5" height="11.19"/>
      <rect class="cls-1" x="2534.2" y="14.39" width="5" height="17.98"/>
      <rect class="cls-1" x="2520.84" y="14.39" width="5" height="61.35"/>
      <rect class="cls-1" x="2508.54" y="52.56" width="5" height="23.18"/>
      <rect class="cls-1" x="2508.54" y="13.79" width="5" height="26.58"/>
      <rect class="cls-1" x="2508.54" y="3.4" width="5" height="5.79"/>
      <rect class="cls-1" x="2508.54" y="81.33" width="5" height="4.6"/>
      <rect class="cls-1" x="2497.29" y="81.33" width="5" height="7.39"/>
      <rect class="cls-1" x="2497.29" y="66.54" width="5" height="10.19"/>
      <rect class="cls-1" x="2497.29" y="38.77" width="5" height="13.79"/>
      <rect class="cls-1" x="2497.29" y="13.79" width="5" height="10.79"/>
      <rect class="cls-1" x="2497.29" y="4.4" width="5" height="4.8"/>
      <rect class="cls-1" x="2484.99" y="4.4" width="5" height="6.39"/>
      <rect class="cls-1" x="2472.69" y="5.4" width="5" height="8.39"/>
      <rect class="cls-1" x="2484.99" y="16.79" width="5" height="12.19"/>
      <rect class="cls-1" x="2484.99" y="40.37" width="5" height="12.19"/>
      <rect class="cls-1" x="2484.99" y="65.55" width="5" height="10.19"/>
      <rect class="cls-1" x="2484.99" y="81.33" width="5" height="8.59"/>
      <rect class="cls-1" x="2472.69" y="76.74" width="5" height="9.19"/>
      <rect class="cls-1" x="2461.44" y="69.54" width="5" height="14.09"/>
      <rect class="cls-1" x="2461.44" y="33.17" width="5" height="21.78"/>
      <rect class="cls-1" x="2472.69" y="42.76" width="5" height="7.19"/>
      <rect class="cls-1" x="2448.79" y="3.4" width="5" height="21.18"/>
      <rect class="cls-1" x="2448.79" y="36.77" width="5" height="19.18"/>
      <rect class="cls-1" x="2448.79" y="69.54" width="5" height="20.38"/>
      <rect class="cls-1" x="2436.84" y="13.79" width="5" height="18.58"/>
      <rect class="cls-1" x="2436.84" y="42.76" width="5" height="7.19"/>
      <rect class="cls-1" x="2436.84" y="59.35" width="5" height="24.28"/>
      <rect class="cls-1" x="2425.24" y="14.39" width="5" height="22.38"/>
      <rect class="cls-1" x="2425.24" y="42.76" width="5" height="5"/>
      <rect class="cls-1" x="2425.24" y="52.56" width="5" height="22.18"/>
      <rect class="cls-1" x="2413.64" y="5.4" width="5" height="78.24"/>
      <rect class="cls-1" x="2399.58" y="70.64" width="5" height="12.99"/>
      <rect class="cls-1" x="2401.33" y="5.4" width="5" height="15.59"/>
      <rect class="cls-1" x="2401.33" y="32.37" width="5" height="24.78"/>
      <rect class="cls-1" x="2389.03" y="74.74" width="5" height="15.19"/>
      <rect class="cls-1" x="2389.03" y="36.77" width="5" height="19.18"/>
      <rect class="cls-1" x="2389.03" width="5" height="15.79"/>
      <rect class="cls-1" x="2377.08" y="5.4" width="5" height="12.79"/>
      <rect class="cls-1" x="2377.08" y="38.77" width="5" height="13.79"/>
      <rect class="cls-1" x="2377.08" y="71.64" width="5" height="15.29"/>
      <rect class="cls-1" x="2364.08" y="66.54" width="5" height="12.74"/>
      <rect class="cls-1" x="2364.08" y="38.77" width="5" height="11.19"/>
      <rect class="cls-1" x="2364.08" y="9.59" width="5" height="13.29"/>
      <rect class="cls-1" x="2351.77" y="13.19" width="5" height="6.99"/>
      <rect class="cls-1" x="2351.77" y="70.64" width="5" height="6.5"/>
      <rect class="cls-1" x="2351.77" y="41.17" width="5" height="6.59"/>
      <rect class="cls-1" x="2341.93" y="41.17" width="5" height="6.59"/>
      <rect class="cls-1" x="2329.98" y="42.76" width="5" height="5"/>
      <rect class="cls-1" x="2316.98" y="42.76" width="5" height="5"/>
      <rect class="cls-1" x="2306.43" y="41.97" width="5" height="5.79"/>
      <rect class="cls-1" x="2340.53" y="68.54" width="5" height="6.59"/>
      <rect class="cls-1" x="2328.57" y="70.14" width="5" height="5"/>
      <rect class="cls-1" x="2315.57" y="70.14" width="5" height="5"/>
      <rect class="cls-1" x="2305.03" y="69.34" width="5" height="5.79"/>
      <rect class="cls-1" x="2341.93" y="13.39" width="5" height="6.59"/>
      <rect class="cls-1" x="2329.98" y="14.99" width="5" height="5"/>
      <rect class="cls-1" x="2316.98" y="14.99" width="5" height="5"/>
      <rect class="cls-1" x="2306.43" y="14.19" width="5" height="5.79"/>
      <rect class="cls-1" x="2292.37" y="42.76" width="5" height="5.6"/>
    </g>
  </g>
</svg>